<svg xmlns="http://www.w3.org/2000/svg" viewBox="0 0 300 300">
  <rect width="300" height="300" fill="#f0f7ff" rx="12"/>
  <!-- Bottle 1 (blue - Methylene Blue) -->
  <rect x="58" y="105" width="50" height="115" rx="5" fill="rgba(219,234,254,0.45)" stroke="#1d4ed8" stroke-width="2"/>
  <rect x="67" y="88" width="32" height="20" rx="3" fill="rgba(219,234,254,0.5)" stroke="#1d4ed8" stroke-width="2"/>
  <rect x="63" y="80" width="42" height="10" rx="4" fill="rgba(30,64,175,0.55)" stroke="#1d4ed8" stroke-width="1.5"/>
  <rect x="59" y="148" width="48" height="71" fill="rgba(59,130,246,0.45)"/>
  <line x1="59" y1="148" x2="107" y2="148" stroke="rgba(37,99,235,0.7)" stroke-width="1.5"/>
  <rect x="62" y="115" width="44" height="26" rx="2" fill="white" stroke="#1d4ed8" stroke-width="0.8"/>
  <text x="84" y="127" font-family="Arial,sans-serif" font-size="6.5" fill="#1d4ed8" text-anchor="middle" font-weight="700">METHYLENE</text>
  <text x="84" y="137" font-family="Arial,sans-serif" font-size="6.5" fill="#1d4ed8" text-anchor="middle">BLUE</text>

  <!-- Bottle 2 (purple - Crystal Violet) -->
  <rect x="125" y="92" width="50" height="128" rx="5" fill="rgba(237,233,254,0.5)" stroke="#7c3aed" stroke-width="2"/>
  <rect x="134" y="75" width="32" height="20" rx="3" fill="rgba(237,233,254,0.5)" stroke="#7c3aed" stroke-width="2"/>
  <rect x="130" y="67" width="40" height="10" rx="4" fill="rgba(109,40,217,0.55)" stroke="#7c3aed" stroke-width="1.5"/>
  <rect x="126" y="150" width="48" height="69" fill="rgba(139,92,246,0.38)"/>
  <line x1="126" y1="150" x2="174" y2="150" stroke="rgba(109,40,217,0.7)" stroke-width="1.5"/>
  <rect x="129" y="103" width="44" height="26" rx="2" fill="white" stroke="#7c3aed" stroke-width="0.8"/>
  <text x="151" y="115" font-family="Arial,sans-serif" font-size="6.5" fill="#7c3aed" text-anchor="middle" font-weight="700">CRYSTAL</text>
  <text x="151" y="125" font-family="Arial,sans-serif" font-size="6.5" fill="#7c3aed" text-anchor="middle">VIOLET</text>

  <!-- Bottle 3 (red - Carbol Fuchsin) -->
  <rect x="192" y="112" width="50" height="108" rx="5" fill="rgba(254,226,226,0.5)" stroke="#dc2626" stroke-width="2"/>
  <rect x="201" y="95" width="32" height="20" rx="3" fill="rgba(254,226,226,0.5)" stroke="#dc2626" stroke-width="2"/>
  <rect x="197" y="87" width="38" height="10" rx="4" fill="rgba(220,38,38,0.5)" stroke="#dc2626" stroke-width="1.5"/>
  <rect x="193" y="158" width="48" height="61" fill="rgba(239,68,68,0.35)"/>
  <line x1="193" y1="158" x2="241" y2="158" stroke="rgba(220,38,38,0.7)" stroke-width="1.5"/>
  <rect x="196" y="122" width="44" height="26" rx="2" fill="white" stroke="#dc2626" stroke-width="0.8"/>
  <text x="218" y="134" font-family="Arial,sans-serif" font-size="6.5" fill="#dc2626" text-anchor="middle" font-weight="700">CARBOL</text>
  <text x="218" y="144" font-family="Arial,sans-serif" font-size="6.5" fill="#dc2626" text-anchor="middle">FUCHSIN</text>

  <!-- Label -->
  <text x="150" y="240" font-family="Arial,sans-serif" font-size="12" fill="#1d4ed8" text-anchor="middle" font-weight="600">Stains &amp; Dyes</text>
</svg>
